<svg width="24" height="24" viewBox="0 0 24 24" fill="none" xmlns="http://www.w3.org/2000/svg">
<g id="calendar_clock_FILL0_wght400_GRAD0_opsz24 1">
<path id="Vector" d="M4.71429 8.14286H16.7143V6.42857H4.71429V8.14286ZM4.71429 20.1429C4.24286 20.1429 3.83929 19.975 3.50357 19.6393C3.16786 19.3036 3 18.9 3 18.4286V6.42857C3 5.95714 3.16786 5.55357 3.50357 5.21786C3.83929 4.88214 4.24286 4.71429 4.71429 4.71429H5.57143V3H7.28571V4.71429H14.1429V3H15.8571V4.71429H16.7143C17.1857 4.71429 17.5893 4.88214 17.925 5.21786C18.2607 5.55357 18.4286 5.95714 18.4286 6.42857V11.2929C18.1571 11.1643 17.8786 11.0571 17.5929 10.9714C17.3071 10.8857 17.0143 10.8214 16.7143 10.7786V9.85714H4.71429V18.4286H10.1143C10.2143 18.7429 10.3321 19.0429 10.4679 19.3286C10.6036 19.6143 10.7643 19.8857 10.95 20.1429H4.71429ZM15.8571 21C14.6714 21 13.6607 20.5821 12.825 19.7464C11.9893 18.9107 11.5714 17.9 11.5714 16.7143C11.5714 15.5286 11.9893 14.5179 12.825 13.6821C13.6607 12.8464 14.6714 12.4286 15.8571 12.4286C17.0429 12.4286 18.0536 12.8464 18.8893 13.6821C19.725 14.5179 20.1429 15.5286 20.1429 16.7143C20.1429 17.9 19.725 18.9107 18.8893 19.7464C18.0536 20.5821 17.0429 21 15.8571 21ZM17.2929 18.75L17.8929 18.15L16.2857 16.5429V14.1429H15.4286V16.8857L17.2929 18.75Z" fill="#545454"/>
</g>
</svg>
