<svg width="20" height="20" viewBox="0 0 20 20" fill="none" xmlns="http://www.w3.org/2000/svg">
<g id="format_list_bulleted_24dp_FILL0_wght400_GRAD0_opsz24 1">
<path id="Vector" d="M7.5 15.833V14.1663H17.5V15.833H7.5ZM7.5 10.833V9.16634H17.5V10.833H7.5ZM7.5 5.83301V4.16634H17.5V5.83301H7.5ZM4.16667 16.6663C3.70833 16.6663 3.31597 16.5031 2.98958 16.1768C2.66319 15.8504 2.5 15.458 2.5 14.9997C2.5 14.5413 2.66319 14.149 2.98958 13.8226C3.31597 13.4962 3.70833 13.333 4.16667 13.333C4.625 13.333 5.01736 13.4962 5.34375 13.8226C5.67014 14.149 5.83333 14.5413 5.83333 14.9997C5.83333 15.458 5.67014 15.8504 5.34375 16.1768C5.01736 16.5031 4.625 16.6663 4.16667 16.6663ZM4.16667 11.6663C3.70833 11.6663 3.31597 11.5031 2.98958 11.1768C2.66319 10.8504 2.5 10.458 2.5 9.99967C2.5 9.54134 2.66319 9.14898 2.98958 8.82259C3.31597 8.4962 3.70833 8.33301 4.16667 8.33301C4.625 8.33301 5.01736 8.4962 5.34375 8.82259C5.67014 9.14898 5.83333 9.54134 5.83333 9.99967C5.83333 10.458 5.67014 10.8504 5.34375 11.1768C5.01736 11.5031 4.625 11.6663 4.16667 11.6663ZM4.16667 6.66634C3.70833 6.66634 3.31597 6.50315 2.98958 6.17676C2.66319 5.85037 2.5 5.45801 2.5 4.99967C2.5 4.54134 2.66319 4.14898 2.98958 3.82259C3.31597 3.4962 3.70833 3.33301 4.16667 3.33301C4.625 3.33301 5.01736 3.4962 5.34375 3.82259C5.67014 4.14898 5.83333 4.54134 5.83333 4.99967C5.83333 5.45801 5.67014 5.85037 5.34375 6.17676C5.01736 6.50315 4.625 6.66634 4.16667 6.66634Z" fill="#FC1683"/>
</g>
</svg>
