<svg width="18" height="18" viewBox="0 0 18 18" fill="none" xmlns="http://www.w3.org/2000/svg">
<g id="format_bold_FILL0_wght400_GRAD0_opsz24 1">
<path id="Vector" d="M5.1001 14.25V3.75H9.24385C10.0563 3.75 10.8063 4 11.4938 4.5C12.1813 5 12.5251 5.69375 12.5251 6.58125C12.5251 7.21875 12.3813 7.70938 12.0938 8.05313C11.8063 8.39688 11.5376 8.64375 11.2876 8.79375C11.6001 8.93125 11.947 9.1875 12.3282 9.5625C12.7095 9.9375 12.9001 10.5 12.9001 11.25C12.9001 12.3625 12.4938 13.1406 11.6813 13.5844C10.8688 14.0281 10.1063 14.25 9.39385 14.25H5.1001ZM7.36885 12.15H9.31885C9.91885 12.15 10.2845 11.9969 10.4157 11.6906C10.547 11.3844 10.6126 11.1625 10.6126 11.025C10.6126 10.8875 10.547 10.6656 10.4157 10.3594C10.2845 10.0531 9.9001 9.9 9.2626 9.9H7.36885V12.15ZM7.36885 7.875H9.1126C9.5251 7.875 9.8251 7.76875 10.0126 7.55625C10.2001 7.34375 10.2938 7.10625 10.2938 6.84375C10.2938 6.54375 10.1876 6.3 9.9751 6.1125C9.7626 5.925 9.4876 5.83125 9.1501 5.83125H7.36885V7.875Z" fill="#1C1B1F"/>
</g>
</svg>
