<svg width="187" height="62" viewBox="0 0 187 62" fill="none" xmlns="http://www.w3.org/2000/svg">
<g filter="url(#filter0_d_1242_11332)">
<rect x="5" y="4" width="175" height="50" rx="25" fill="url(#paint0_linear_1242_11332)" shape-rendering="crispEdges"/>
<path d="M19.75 20.75H27.0833V28.0833H19.75V20.75ZM28.9167 20.75H36.25V28.0833H28.9167V20.75ZM19.75 29.9167H27.0833V37.25H19.75V29.9167ZM31.6667 29.9167H33.5V32.6667H36.25V34.5H33.5V37.25H31.6667V34.5H28.9167V32.6667H31.6667V29.9167Z" fill="white"/>
<path d="M47.49 29.1C47.49 28.1387 47.7047 27.28 48.134 26.524C48.5727 25.7587 49.1653 25.166 49.912 24.746C50.668 24.3167 51.5127 24.102 52.446 24.102C53.538 24.102 54.4947 24.382 55.316 24.942C56.1373 25.502 56.7113 26.2767 57.038 27.266H54.784C54.56 26.7993 54.2427 26.4493 53.832 26.216C53.4307 25.9827 52.964 25.866 52.432 25.866C51.8627 25.866 51.354 26.0013 50.906 26.272C50.4673 26.5333 50.122 26.9067 49.87 27.392C49.6273 27.8773 49.506 28.4467 49.506 29.1C49.506 29.744 49.6273 30.3133 49.87 30.808C50.122 31.2933 50.4673 31.6713 50.906 31.942C51.354 32.2033 51.8627 32.334 52.432 32.334C52.964 32.334 53.4307 32.2173 53.832 31.984C54.2427 31.7413 54.56 31.3867 54.784 30.92H57.038C56.7113 31.9187 56.1373 32.698 55.316 33.258C54.504 33.8087 53.5473 34.084 52.446 34.084C51.5127 34.084 50.668 33.874 49.912 33.454C49.1653 33.0247 48.5727 32.432 48.134 31.676C47.7047 30.92 47.49 30.0613 47.49 29.1ZM60.6721 27.448C60.9241 27.0373 61.2508 26.7153 61.6521 26.482C62.0628 26.2487 62.5294 26.132 63.0521 26.132V28.19H62.5341C61.9181 28.19 61.4514 28.3347 61.1341 28.624C60.8261 28.9133 60.6721 29.4173 60.6721 30.136V34H58.7121V26.244H60.6721V27.448ZM71.5823 29.954C71.5823 30.234 71.5636 30.486 71.5263 30.71H65.8563C65.9029 31.27 66.0989 31.7087 66.4443 32.026C66.7896 32.3433 67.2143 32.502 67.7183 32.502C68.4463 32.502 68.9643 32.1893 69.2723 31.564H71.3863C71.1623 32.3107 70.7329 32.9267 70.0983 33.412C69.4636 33.888 68.6843 34.126 67.7603 34.126C67.0136 34.126 66.3416 33.9627 65.7443 33.636C65.1563 33.3 64.6943 32.8287 64.3583 32.222C64.0316 31.6153 63.8682 30.9153 63.8682 30.122C63.8682 29.3193 64.0316 28.6147 64.3583 28.008C64.6849 27.4013 65.1423 26.9347 65.7303 26.608C66.3183 26.2813 66.9949 26.118 67.7603 26.118C68.4976 26.118 69.1556 26.2767 69.7343 26.594C70.3223 26.9113 70.7749 27.364 71.0923 27.952C71.4189 28.5307 71.5823 29.198 71.5823 29.954ZM69.5523 29.394C69.5429 28.89 69.3609 28.4887 69.0063 28.19C68.6516 27.882 68.2176 27.728 67.7043 27.728C67.2189 27.728 66.8083 27.8773 66.4723 28.176C66.1456 28.4653 65.9449 28.8713 65.8703 29.394H69.5523ZM72.5089 30.094C72.5089 29.31 72.6629 28.6147 72.9709 28.008C73.2882 27.4013 73.7129 26.9347 74.2449 26.608C74.7862 26.2813 75.3882 26.118 76.0509 26.118C76.6295 26.118 77.1335 26.2347 77.5629 26.468C78.0015 26.7013 78.3515 26.9953 78.6129 27.35V26.244H80.5869V34H78.6129V32.866C78.3609 33.23 78.0109 33.5333 77.5629 33.776C77.1242 34.0093 76.6155 34.126 76.0369 34.126C75.3835 34.126 74.7862 33.958 74.2449 33.622C73.7129 33.286 73.2882 32.8147 72.9709 32.208C72.6629 31.592 72.5089 30.8873 72.5089 30.094ZM78.6129 30.122C78.6129 29.646 78.5195 29.24 78.3329 28.904C78.1462 28.5587 77.8942 28.2973 77.5769 28.12C77.2595 27.9333 76.9189 27.84 76.5549 27.84C76.1909 27.84 75.8549 27.9287 75.5469 28.106C75.2389 28.2833 74.9869 28.5447 74.7909 28.89C74.6042 29.226 74.5109 29.6273 74.5109 30.094C74.5109 30.5607 74.6042 30.9713 74.7909 31.326C74.9869 31.6713 75.2389 31.9373 75.5469 32.124C75.8642 32.3107 76.2002 32.404 76.5549 32.404C76.9189 32.404 77.2595 32.3153 77.5769 32.138C77.8942 31.9513 78.1462 31.69 78.3329 31.354C78.5195 31.0087 78.6129 30.598 78.6129 30.122ZM84.7832 27.854V31.606C84.7832 31.8673 84.8438 32.0587 84.9652 32.18C85.0958 32.292 85.3105 32.348 85.6092 32.348H86.5192V34H85.2872C83.6352 34 82.8092 33.1973 82.8092 31.592V27.854H81.8852V26.244H82.8092V24.326H84.7832V26.244H86.5192V27.854H84.7832ZM95.1389 29.954C95.1389 30.234 95.1202 30.486 95.0829 30.71H89.4129C89.4596 31.27 89.6556 31.7087 90.0009 32.026C90.3462 32.3433 90.7709 32.502 91.2749 32.502C92.0029 32.502 92.5209 32.1893 92.8289 31.564H94.9429C94.7189 32.3107 94.2896 32.9267 93.6549 33.412C93.0202 33.888 92.2409 34.126 91.3169 34.126C90.5702 34.126 89.8982 33.9627 89.3009 33.636C88.7129 33.3 88.2509 32.8287 87.9149 32.222C87.5882 31.6153 87.4249 30.9153 87.4249 30.122C87.4249 29.3193 87.5882 28.6147 87.9149 28.008C88.2416 27.4013 88.6989 26.9347 89.2869 26.608C89.8749 26.2813 90.5516 26.118 91.3169 26.118C92.0542 26.118 92.7122 26.2767 93.2909 26.594C93.8789 26.9113 94.3316 27.364 94.6489 27.952C94.9756 28.5307 95.1389 29.198 95.1389 29.954ZM93.1089 29.394C93.0996 28.89 92.9176 28.4887 92.5629 28.19C92.2082 27.882 91.7742 27.728 91.2609 27.728C90.7756 27.728 90.3649 27.8773 90.0289 28.176C89.7022 28.4653 89.5016 28.8713 89.4269 29.394H93.1089ZM106.555 24.228V25.81H103.951V34H101.991V25.81H99.3875V24.228H106.555ZM115.196 29.954C115.196 30.234 115.177 30.486 115.14 30.71H109.47C109.516 31.27 109.712 31.7087 110.058 32.026C110.403 32.3433 110.828 32.502 111.332 32.502C112.06 32.502 112.578 32.1893 112.886 31.564H115C114.776 32.3107 114.346 32.9267 113.712 33.412C113.077 33.888 112.298 34.126 111.374 34.126C110.627 34.126 109.955 33.9627 109.358 33.636C108.77 33.3 108.308 32.8287 107.972 32.222C107.645 31.6153 107.482 30.9153 107.482 30.122C107.482 29.3193 107.645 28.6147 107.972 28.008C108.298 27.4013 108.756 26.9347 109.344 26.608C109.932 26.2813 110.608 26.118 111.374 26.118C112.111 26.118 112.769 26.2767 113.348 26.594C113.936 26.9113 114.388 27.364 114.706 27.952C115.032 28.5307 115.196 29.198 115.196 29.954ZM113.166 29.394C113.156 28.89 112.974 28.4887 112.62 28.19C112.265 27.882 111.831 27.728 111.318 27.728C110.832 27.728 110.422 27.8773 110.086 28.176C109.759 28.4653 109.558 28.8713 109.484 29.394H113.166ZM126.258 26.132C127.21 26.132 127.975 26.426 128.554 27.014C129.142 27.5927 129.436 28.4047 129.436 29.45V34H127.476V29.716C127.476 29.1093 127.322 28.6473 127.014 28.33C126.706 28.0033 126.286 27.84 125.754 27.84C125.222 27.84 124.797 28.0033 124.48 28.33C124.172 28.6473 124.018 29.1093 124.018 29.716V34H122.058V29.716C122.058 29.1093 121.904 28.6473 121.596 28.33C121.288 28.0033 120.868 27.84 120.336 27.84C119.795 27.84 119.365 28.0033 119.048 28.33C118.74 28.6473 118.586 29.1093 118.586 29.716V34H116.626V26.244H118.586V27.182C118.838 26.8553 119.16 26.5987 119.552 26.412C119.953 26.2253 120.392 26.132 120.868 26.132C121.475 26.132 122.016 26.2627 122.492 26.524C122.968 26.776 123.337 27.14 123.598 27.616C123.85 27.168 124.214 26.8087 124.69 26.538C125.175 26.2673 125.698 26.132 126.258 26.132ZM133.256 27.364C133.508 27.0093 133.853 26.7153 134.292 26.482C134.74 26.2393 135.249 26.118 135.818 26.118C136.481 26.118 137.078 26.2813 137.61 26.608C138.151 26.9347 138.576 27.4013 138.884 28.008C139.201 28.6053 139.36 29.3007 139.36 30.094C139.36 30.8873 139.201 31.592 138.884 32.208C138.576 32.8147 138.151 33.286 137.61 33.622C137.078 33.958 136.481 34.126 135.818 34.126C135.249 34.126 134.745 34.0093 134.306 33.776C133.877 33.5427 133.527 33.2487 133.256 32.894V37.696H131.296V26.244H133.256V27.364ZM137.358 30.094C137.358 29.6273 137.26 29.226 137.064 28.89C136.877 28.5447 136.625 28.2833 136.308 28.106C136 27.9287 135.664 27.84 135.3 27.84C134.945 27.84 134.609 27.9333 134.292 28.12C133.984 28.2973 133.732 28.5587 133.536 28.904C133.349 29.2493 133.256 29.6553 133.256 30.122C133.256 30.5887 133.349 30.9947 133.536 31.34C133.732 31.6853 133.984 31.9513 134.292 32.138C134.609 32.3153 134.945 32.404 135.3 32.404C135.664 32.404 136 32.3107 136.308 32.124C136.625 31.9373 136.877 31.6713 137.064 31.326C137.26 30.9807 137.358 30.57 137.358 30.094ZM142.744 23.64V34H140.784V23.64H142.744ZM144.177 30.094C144.177 29.31 144.331 28.6147 144.639 28.008C144.956 27.4013 145.381 26.9347 145.913 26.608C146.454 26.2813 147.056 26.118 147.719 26.118C148.298 26.118 148.802 26.2347 149.231 26.468C149.67 26.7013 150.02 26.9953 150.281 27.35V26.244H152.255V34H150.281V32.866C150.029 33.23 149.679 33.5333 149.231 33.776C148.792 34.0093 148.284 34.126 147.705 34.126C147.052 34.126 146.454 33.958 145.913 33.622C145.381 33.286 144.956 32.8147 144.639 32.208C144.331 31.592 144.177 30.8873 144.177 30.094ZM150.281 30.122C150.281 29.646 150.188 29.24 150.001 28.904C149.814 28.5587 149.562 28.2973 149.245 28.12C148.928 27.9333 148.587 27.84 148.223 27.84C147.859 27.84 147.523 27.9287 147.215 28.106C146.907 28.2833 146.655 28.5447 146.459 28.89C146.272 29.226 146.179 29.6273 146.179 30.094C146.179 30.5607 146.272 30.9713 146.459 31.326C146.655 31.6713 146.907 31.9373 147.215 32.124C147.532 32.3107 147.868 32.404 148.223 32.404C148.587 32.404 148.928 32.3153 149.245 32.138C149.562 31.9513 149.814 31.69 150.001 31.354C150.188 31.0087 150.281 30.598 150.281 30.122ZM156.451 27.854V31.606C156.451 31.8673 156.512 32.0587 156.633 32.18C156.764 32.292 156.978 32.348 157.277 32.348H158.187V34H156.955C155.303 34 154.477 33.1973 154.477 31.592V27.854H153.553V26.244H154.477V24.326H156.451V26.244H158.187V27.854H156.451ZM166.807 29.954C166.807 30.234 166.788 30.486 166.751 30.71H161.081C161.128 31.27 161.324 31.7087 161.669 32.026C162.014 32.3433 162.439 32.502 162.943 32.502C163.671 32.502 164.189 32.1893 164.497 31.564H166.611C166.387 32.3107 165.958 32.9267 165.323 33.412C164.688 33.888 163.909 34.126 162.985 34.126C162.238 34.126 161.566 33.9627 160.969 33.636C160.381 33.3 159.919 32.8287 159.583 32.222C159.256 31.6153 159.093 30.9153 159.093 30.122C159.093 29.3193 159.256 28.6147 159.583 28.008C159.91 27.4013 160.367 26.9347 160.955 26.608C161.543 26.2813 162.22 26.118 162.985 26.118C163.722 26.118 164.38 26.2767 164.959 26.594C165.547 26.9113 166 27.364 166.317 27.952C166.644 28.5307 166.807 29.198 166.807 29.954ZM164.777 29.394C164.768 28.89 164.586 28.4887 164.231 28.19C163.876 27.882 163.442 27.728 162.929 27.728C162.444 27.728 162.033 27.8773 161.697 28.176C161.37 28.4653 161.17 28.8713 161.095 29.394H164.777Z" fill="white"/>
</g>
<defs>
<filter id="filter0_d_1242_11332" x="0" y="0" width="187" height="62" filterUnits="userSpaceOnUse" color-interpolation-filters="sRGB">
<feFlood flood-opacity="0" result="BackgroundImageFix"/>
<feColorMatrix in="SourceAlpha" type="matrix" values="0 0 0 0 0 0 0 0 0 0 0 0 0 0 0 0 0 0 127 0" result="hardAlpha"/>
<feOffset dx="1" dy="2"/>
<feGaussianBlur stdDeviation="3"/>
<feComposite in2="hardAlpha" operator="out"/>
<feColorMatrix type="matrix" values="0 0 0 0 0 0 0 0 0 0 0 0 0 0 0 0 0 0 0.25 0"/>
<feBlend mode="normal" in2="BackgroundImageFix" result="effect1_dropShadow_1242_11332"/>
<feBlend mode="normal" in="SourceGraphic" in2="effect1_dropShadow_1242_11332" result="shape"/>
</filter>
<linearGradient id="paint0_linear_1242_11332" x1="5" y1="4" x2="182.834" y2="40.0027" gradientUnits="userSpaceOnUse">
<stop stop-color="#FC1683"/>
<stop offset="1" stop-color="#4825A1"/>
</linearGradient>
</defs>
</svg>
