<svg width="163" height="62" viewBox="0 0 163 62" fill="none" xmlns="http://www.w3.org/2000/svg">
<g filter="url(#filter0_d_45_2024)">
<rect x="5" y="4" width="151" height="50" rx="25" fill="url(#paint0_linear_45_2024)" shape-rendering="crispEdges"/>
<g clip-path="url(#clip0_45_2024)">
<path d="M28.4583 28.9542C28.9014 28.4653 29.2413 27.9076 29.4781 27.2812C29.7149 26.6549 29.8333 26.0055 29.8333 25.3333C29.8333 24.6611 29.7149 24.0118 29.4781 23.3854C29.2413 22.759 28.9014 22.2014 28.4583 21.7125C29.375 21.8347 30.1389 22.2396 30.75 22.9271C31.3611 23.6146 31.6667 24.4167 31.6667 25.3333C31.6667 26.25 31.3611 27.0521 30.75 27.7396C30.1389 28.4271 29.375 28.8319 28.4583 28.9542ZM33.5 36.3333V33.5833C33.5 33.0333 33.3778 32.5101 33.1333 32.0135C32.8889 31.517 32.5681 31.0778 32.1708 30.6958C32.95 30.9708 33.6719 31.326 34.3365 31.7614C35.001 32.1969 35.3333 32.8042 35.3333 33.5833V36.3333H33.5ZM35.3333 29.9167V28.0833H33.5V26.25H35.3333V24.4167H37.1667V26.25H39V28.0833H37.1667V29.9167H35.3333ZM24.3333 29C23.325 29 22.4618 28.641 21.7438 27.9229C21.0257 27.2049 20.6667 26.3417 20.6667 25.3333C20.6667 24.325 21.0257 23.4618 21.7438 22.7437C22.4618 22.0257 23.325 21.6667 24.3333 21.6667C25.3417 21.6667 26.2049 22.0257 26.9229 22.7437C27.641 23.4618 28 24.325 28 25.3333C28 26.3417 27.641 27.2049 26.9229 27.9229C26.2049 28.641 25.3417 29 24.3333 29ZM17 36.3333V33.7667C17 33.2472 17.1337 32.7698 17.401 32.3344C17.6684 31.8989 18.0236 31.5667 18.4667 31.3375C19.4139 30.8639 20.3764 30.5087 21.3542 30.2719C22.3319 30.0351 23.325 29.9167 24.3333 29.9167C25.3417 29.9167 26.3347 30.0351 27.3125 30.2719C28.2903 30.5087 29.2528 30.8639 30.2 31.3375C30.6431 31.5667 30.9983 31.8989 31.2656 32.3344C31.533 32.7698 31.6667 33.2472 31.6667 33.7667V36.3333H17Z" fill="white"/>
</g>
<path d="M47.9812 29.1C47.9812 28.1387 48.1959 27.28 48.6252 26.524C49.0639 25.7587 49.6565 25.166 50.4032 24.746C51.1592 24.3167 52.0039 24.102 52.9372 24.102C54.0292 24.102 54.9859 24.382 55.8072 24.942C56.6285 25.502 57.2025 26.2767 57.5292 27.266H55.2752C55.0512 26.7993 54.7339 26.4493 54.3232 26.216C53.9219 25.9827 53.4552 25.866 52.9232 25.866C52.3539 25.866 51.8452 26.0013 51.3972 26.272C50.9585 26.5333 50.6132 26.9067 50.3612 27.392C50.1185 27.8773 49.9972 28.4467 49.9972 29.1C49.9972 29.744 50.1185 30.3133 50.3612 30.808C50.6132 31.2933 50.9585 31.6713 51.3972 31.942C51.8452 32.2033 52.3539 32.334 52.9232 32.334C53.4552 32.334 53.9219 32.2173 54.3232 31.984C54.7339 31.7413 55.0512 31.3867 55.2752 30.92H57.5292C57.2025 31.9187 56.6285 32.698 55.8072 33.258C54.9952 33.8087 54.0385 34.084 52.9372 34.084C52.0039 34.084 51.1592 33.874 50.4032 33.454C49.6565 33.0247 49.0639 32.432 48.6252 31.676C48.1959 30.92 47.9812 30.0613 47.9812 29.1ZM61.1633 27.448C61.4153 27.0373 61.742 26.7153 62.1433 26.482C62.554 26.2487 63.0206 26.132 63.5433 26.132V28.19H63.0253C62.4093 28.19 61.9426 28.3347 61.6253 28.624C61.3173 28.9133 61.1633 29.4173 61.1633 30.136V34H59.2033V26.244H61.1633V27.448ZM72.0735 29.954C72.0735 30.234 72.0548 30.486 72.0175 30.71H66.3475C66.3941 31.27 66.5901 31.7087 66.9355 32.026C67.2808 32.3433 67.7055 32.502 68.2095 32.502C68.9375 32.502 69.4555 32.1893 69.7635 31.564H71.8775C71.6535 32.3107 71.2241 32.9267 70.5895 33.412C69.9548 33.888 69.1755 34.126 68.2515 34.126C67.5048 34.126 66.8328 33.9627 66.2355 33.636C65.6475 33.3 65.1855 32.8287 64.8495 32.222C64.5228 31.6153 64.3595 30.9153 64.3595 30.122C64.3595 29.3193 64.5228 28.6147 64.8495 28.008C65.1761 27.4013 65.6335 26.9347 66.2215 26.608C66.8095 26.2813 67.4861 26.118 68.2515 26.118C68.9888 26.118 69.6468 26.2767 70.2255 26.594C70.8135 26.9113 71.2661 27.364 71.5835 27.952C71.9101 28.5307 72.0735 29.198 72.0735 29.954ZM70.0435 29.394C70.0341 28.89 69.8521 28.4887 69.4975 28.19C69.1428 27.882 68.7088 27.728 68.1955 27.728C67.7101 27.728 67.2995 27.8773 66.9635 28.176C66.6368 28.4653 66.4361 28.8713 66.3615 29.394H70.0435ZM73.0001 30.094C73.0001 29.31 73.1541 28.6147 73.4621 28.008C73.7794 27.4013 74.2041 26.9347 74.7361 26.608C75.2774 26.2813 75.8794 26.118 76.5421 26.118C77.1208 26.118 77.6248 26.2347 78.0541 26.468C78.4928 26.7013 78.8428 26.9953 79.1041 27.35V26.244H81.0781V34H79.1041V32.866C78.8521 33.23 78.5021 33.5333 78.0541 33.776C77.6154 34.0093 77.1068 34.126 76.5281 34.126C75.8748 34.126 75.2774 33.958 74.7361 33.622C74.2041 33.286 73.7794 32.8147 73.4621 32.208C73.1541 31.592 73.0001 30.8873 73.0001 30.094ZM79.1041 30.122C79.1041 29.646 79.0108 29.24 78.8241 28.904C78.6374 28.5587 78.3854 28.2973 78.0681 28.12C77.7508 27.9333 77.4101 27.84 77.0461 27.84C76.6821 27.84 76.3461 27.9287 76.0381 28.106C75.7301 28.2833 75.4781 28.5447 75.2821 28.89C75.0954 29.226 75.0021 29.6273 75.0021 30.094C75.0021 30.5607 75.0954 30.9713 75.2821 31.326C75.4781 31.6713 75.7301 31.9373 76.0381 32.124C76.3554 32.3107 76.6914 32.404 77.0461 32.404C77.4101 32.404 77.7508 32.3153 78.0681 32.138C78.3854 31.9513 78.6374 31.69 78.8241 31.354C79.0108 31.0087 79.1041 30.598 79.1041 30.122ZM85.2744 27.854V31.606C85.2744 31.8673 85.335 32.0587 85.4564 32.18C85.587 32.292 85.8017 32.348 86.1004 32.348H87.0104V34H85.7784C84.1264 34 83.3004 33.1973 83.3004 31.592V27.854H82.3764V26.244H83.3004V24.326H85.2744V26.244H87.0104V27.854H85.2744ZM95.6301 29.954C95.6301 30.234 95.6114 30.486 95.5741 30.71H89.9041C89.9508 31.27 90.1468 31.7087 90.4921 32.026C90.8374 32.3433 91.2621 32.502 91.7661 32.502C92.4941 32.502 93.0121 32.1893 93.3201 31.564H95.4341C95.2101 32.3107 94.7808 32.9267 94.1461 33.412C93.5114 33.888 92.7321 34.126 91.8081 34.126C91.0614 34.126 90.3894 33.9627 89.7921 33.636C89.2041 33.3 88.7421 32.8287 88.4061 32.222C88.0794 31.6153 87.9161 30.9153 87.9161 30.122C87.9161 29.3193 88.0794 28.6147 88.4061 28.008C88.7328 27.4013 89.1901 26.9347 89.7781 26.608C90.3661 26.2813 91.0428 26.118 91.8081 26.118C92.5454 26.118 93.2034 26.2767 93.7821 26.594C94.3701 26.9113 94.8228 27.364 95.1401 27.952C95.4668 28.5307 95.6301 29.198 95.6301 29.954ZM93.6001 29.394C93.5908 28.89 93.4088 28.4887 93.0541 28.19C92.6994 27.882 92.2654 27.728 91.7521 27.728C91.2668 27.728 90.8561 27.8773 90.5201 28.176C90.1934 28.4653 89.9928 28.8713 89.9181 29.394H93.6001ZM107.201 27.168C106.977 26.7573 106.669 26.4447 106.277 26.23C105.885 26.0153 105.427 25.908 104.905 25.908C104.326 25.908 103.813 26.0387 103.365 26.3C102.917 26.5613 102.567 26.9347 102.315 27.42C102.063 27.9053 101.937 28.4653 101.937 29.1C101.937 29.7533 102.063 30.3227 102.315 30.808C102.576 31.2933 102.935 31.6667 103.393 31.928C103.85 32.1893 104.382 32.32 104.989 32.32C105.735 32.32 106.347 32.124 106.823 31.732C107.299 31.3307 107.611 30.7753 107.761 30.066H104.401V28.568H109.693V30.276C109.562 30.9573 109.282 31.5873 108.853 32.166C108.423 32.7447 107.868 33.2113 107.187 33.566C106.515 33.9113 105.759 34.084 104.919 34.084C103.976 34.084 103.122 33.874 102.357 33.454C101.601 33.0247 101.003 32.432 100.565 31.676C100.135 30.92 99.9207 30.0613 99.9207 29.1C99.9207 28.1387 100.135 27.28 100.565 26.524C101.003 25.7587 101.601 25.166 102.357 24.746C103.122 24.3167 103.971 24.102 104.905 24.102C106.006 24.102 106.963 24.3727 107.775 24.914C108.587 25.446 109.147 26.1973 109.455 27.168H107.201ZM113.103 27.448C113.355 27.0373 113.681 26.7153 114.083 26.482C114.493 26.2487 114.96 26.132 115.483 26.132V28.19H114.965C114.349 28.19 113.882 28.3347 113.565 28.624C113.257 28.9133 113.103 29.4173 113.103 30.136V34H111.143V26.244H113.103V27.448ZM120.247 34.126C119.5 34.126 118.828 33.9627 118.231 33.636C117.634 33.3 117.162 32.8287 116.817 32.222C116.481 31.6153 116.313 30.9153 116.313 30.122C116.313 29.3287 116.486 28.6287 116.831 28.022C117.186 27.4153 117.666 26.9487 118.273 26.622C118.88 26.286 119.556 26.118 120.303 26.118C121.05 26.118 121.726 26.286 122.333 26.622C122.94 26.9487 123.416 27.4153 123.761 28.022C124.116 28.6287 124.293 29.3287 124.293 30.122C124.293 30.9153 124.111 31.6153 123.747 32.222C123.392 32.8287 122.907 33.3 122.291 33.636C121.684 33.9627 121.003 34.126 120.247 34.126ZM120.247 32.418C120.602 32.418 120.933 32.334 121.241 32.166C121.558 31.9887 121.81 31.7273 121.997 31.382C122.184 31.0367 122.277 30.6167 122.277 30.122C122.277 29.3847 122.081 28.82 121.689 28.428C121.306 28.0267 120.835 27.826 120.275 27.826C119.715 27.826 119.244 28.0267 118.861 28.428C118.488 28.82 118.301 29.3847 118.301 30.122C118.301 30.8593 118.483 31.4287 118.847 31.83C119.22 32.222 119.687 32.418 120.247 32.418ZM133.053 26.244V34H131.079V33.02C130.827 33.356 130.495 33.622 130.085 33.818C129.683 34.0047 129.245 34.098 128.769 34.098C128.162 34.098 127.625 33.972 127.159 33.72C126.692 33.4587 126.323 33.0807 126.053 32.586C125.791 32.082 125.661 31.4847 125.661 30.794V26.244H127.621V30.514C127.621 31.13 127.775 31.606 128.083 31.942C128.391 32.2687 128.811 32.432 129.343 32.432C129.884 32.432 130.309 32.2687 130.617 31.942C130.925 31.606 131.079 31.13 131.079 30.514V26.244H133.053ZM136.947 27.364C137.199 27.0093 137.544 26.7153 137.983 26.482C138.431 26.2393 138.939 26.118 139.509 26.118C140.171 26.118 140.769 26.2813 141.301 26.608C141.842 26.9347 142.267 27.4013 142.575 28.008C142.892 28.6053 143.051 29.3007 143.051 30.094C143.051 30.8873 142.892 31.592 142.575 32.208C142.267 32.8147 141.842 33.286 141.301 33.622C140.769 33.958 140.171 34.126 139.509 34.126C138.939 34.126 138.435 34.0093 137.997 33.776C137.567 33.5427 137.217 33.2487 136.947 32.894V37.696H134.987V26.244H136.947V27.364ZM141.049 30.094C141.049 29.6273 140.951 29.226 140.755 28.89C140.568 28.5447 140.316 28.2833 139.999 28.106C139.691 27.9287 139.355 27.84 138.991 27.84C138.636 27.84 138.3 27.9333 137.983 28.12C137.675 28.2973 137.423 28.5587 137.227 28.904C137.04 29.2493 136.947 29.6553 136.947 30.122C136.947 30.5887 137.04 30.9947 137.227 31.34C137.423 31.6853 137.675 31.9513 137.983 32.138C138.3 32.3153 138.636 32.404 138.991 32.404C139.355 32.404 139.691 32.3107 139.999 32.124C140.316 31.9373 140.568 31.6713 140.755 31.326C140.951 30.9807 141.049 30.57 141.049 30.094Z" fill="white"/>
</g>
<defs>
<filter id="filter0_d_45_2024" x="0" y="0" width="163" height="62" filterUnits="userSpaceOnUse" color-interpolation-filters="sRGB">
<feFlood flood-opacity="0" result="BackgroundImageFix"/>
<feColorMatrix in="SourceAlpha" type="matrix" values="0 0 0 0 0 0 0 0 0 0 0 0 0 0 0 0 0 0 127 0" result="hardAlpha"/>
<feOffset dx="1" dy="2"/>
<feGaussianBlur stdDeviation="3"/>
<feComposite in2="hardAlpha" operator="out"/>
<feColorMatrix type="matrix" values="0 0 0 0 0 0 0 0 0 0 0 0 0 0 0 0 0 0 0.25 0"/>
<feBlend mode="normal" in2="BackgroundImageFix" result="effect1_dropShadow_45_2024"/>
<feBlend mode="normal" in="SourceGraphic" in2="effect1_dropShadow_45_2024" result="shape"/>
</filter>
<linearGradient id="paint0_linear_45_2024" x1="5" y1="4" x2="160.004" y2="31.0772" gradientUnits="userSpaceOnUse">
<stop stop-color="#FC1683"/>
<stop offset="1" stop-color="#4825A1"/>
</linearGradient>
<clipPath id="clip0_45_2024">
<rect width="22" height="22" fill="white" transform="translate(17 18)"/>
</clipPath>
</defs>
</svg>
