<svg width="170" height="62" viewBox="0 0 170 62" fill="none" xmlns="http://www.w3.org/2000/svg">
<g filter="url(#filter0_d_1_39)">
<rect x="5" y="4" width="158" height="50" rx="25" fill="url(#paint0_linear_1_39)" shape-rendering="crispEdges"/>
<path d="M20.6667 36.3333V30.8333L28 29L20.6667 27.1667V21.6667L38.0833 29L20.6667 36.3333Z" fill="white"/>
<path d="M51.6603 34.098C50.979 34.098 50.363 33.9813 49.8123 33.748C49.271 33.5147 48.8416 33.1787 48.5243 32.74C48.207 32.3013 48.0436 31.7833 48.0343 31.186H50.1343C50.1623 31.5873 50.3023 31.9047 50.5543 32.138C50.8156 32.3713 51.1703 32.488 51.6183 32.488C52.0756 32.488 52.435 32.3807 52.6963 32.166C52.9576 31.942 53.0883 31.6527 53.0883 31.298C53.0883 31.0087 52.9996 30.7707 52.8223 30.584C52.645 30.3973 52.421 30.2527 52.1503 30.15C51.889 30.038 51.525 29.9167 51.0583 29.786C50.4236 29.5993 49.9056 29.4173 49.5043 29.24C49.1123 29.0533 48.7716 28.778 48.4823 28.414C48.2023 28.0407 48.0623 27.546 48.0623 26.93C48.0623 26.3513 48.207 25.8473 48.4963 25.418C48.7856 24.9887 49.1916 24.662 49.7143 24.438C50.237 24.2047 50.8343 24.088 51.5063 24.088C52.5143 24.088 53.331 24.3353 53.9563 24.83C54.591 25.3153 54.941 25.9967 55.0063 26.874H52.8503C52.8316 26.538 52.687 26.2627 52.4163 26.048C52.155 25.824 51.805 25.712 51.3663 25.712C50.9836 25.712 50.6756 25.81 50.4423 26.006C50.2183 26.202 50.1063 26.4867 50.1063 26.86C50.1063 27.1213 50.1903 27.3407 50.3583 27.518C50.5356 27.686 50.7503 27.826 51.0023 27.938C51.2636 28.0407 51.6276 28.162 52.0943 28.302C52.729 28.4887 53.247 28.6753 53.6483 28.862C54.0496 29.0487 54.395 29.3287 54.6843 29.702C54.9736 30.0753 55.1183 30.5653 55.1183 31.172C55.1183 31.6947 54.983 32.18 54.7123 32.628C54.4416 33.076 54.045 33.4353 53.5223 33.706C52.9996 33.9673 52.379 34.098 51.6603 34.098ZM64.0276 29.954C64.0276 30.234 64.0089 30.486 63.9716 30.71H58.3016C58.3482 31.27 58.5442 31.7087 58.8896 32.026C59.2349 32.3433 59.6596 32.502 60.1636 32.502C60.8916 32.502 61.4096 32.1893 61.7176 31.564H63.8316C63.6076 32.3107 63.1782 32.9267 62.5436 33.412C61.9089 33.888 61.1296 34.126 60.2056 34.126C59.4589 34.126 58.7869 33.9627 58.1896 33.636C57.6016 33.3 57.1396 32.8287 56.8036 32.222C56.4769 31.6153 56.3136 30.9153 56.3136 30.122C56.3136 29.3193 56.4769 28.6147 56.8036 28.008C57.1302 27.4013 57.5876 26.9347 58.1756 26.608C58.7636 26.2813 59.4402 26.118 60.2056 26.118C60.9429 26.118 61.6009 26.2767 62.1796 26.594C62.7676 26.9113 63.2202 27.364 63.5376 27.952C63.8642 28.5307 64.0276 29.198 64.0276 29.954ZM61.9976 29.394C61.9882 28.89 61.8062 28.4887 61.4516 28.19C61.0969 27.882 60.6629 27.728 60.1496 27.728C59.6642 27.728 59.2536 27.8773 58.9176 28.176C58.5909 28.4653 58.3902 28.8713 58.3156 29.394H61.9976ZM69.7562 26.132C70.6802 26.132 71.4269 26.426 71.9962 27.014C72.5655 27.5927 72.8502 28.4047 72.8502 29.45V34H70.8902V29.716C70.8902 29.1 70.7362 28.6287 70.4282 28.302C70.1202 27.966 69.7002 27.798 69.1682 27.798C68.6269 27.798 68.1975 27.966 67.8802 28.302C67.5722 28.6287 67.4182 29.1 67.4182 29.716V34H65.4582V26.244H67.4182V27.21C67.6795 26.874 68.0109 26.6127 68.4122 26.426C68.8229 26.23 69.2709 26.132 69.7562 26.132ZM74.21 30.094C74.21 29.31 74.364 28.6147 74.672 28.008C74.9894 27.4013 75.4187 26.9347 75.96 26.608C76.5014 26.2813 77.1034 26.118 77.766 26.118C78.27 26.118 78.7507 26.23 79.208 26.454C79.6654 26.6687 80.0294 26.958 80.3 27.322V23.64H82.288V34H80.3V32.852C80.0574 33.2347 79.7167 33.5427 79.278 33.776C78.8394 34.0093 78.3307 34.126 77.752 34.126C77.0987 34.126 76.5014 33.958 75.96 33.622C75.4187 33.286 74.9894 32.8147 74.672 32.208C74.364 31.592 74.21 30.8873 74.21 30.094ZM80.314 30.122C80.314 29.646 80.2207 29.24 80.034 28.904C79.8474 28.5587 79.5954 28.2973 79.278 28.12C78.9607 27.9333 78.62 27.84 78.256 27.84C77.892 27.84 77.556 27.9287 77.248 28.106C76.94 28.2833 76.688 28.5447 76.492 28.89C76.3054 29.226 76.212 29.6273 76.212 30.094C76.212 30.5607 76.3054 30.9713 76.492 31.326C76.688 31.6713 76.94 31.9373 77.248 32.124C77.5654 32.3107 77.9014 32.404 78.256 32.404C78.62 32.404 78.9607 32.3153 79.278 32.138C79.5954 31.9513 79.8474 31.69 80.034 31.354C80.2207 31.0087 80.314 30.598 80.314 30.122ZM98.1923 24.228V34H96.2323V27.644L93.6143 34H92.1303L89.4983 27.644V34H87.5383V24.228H89.7643L92.8723 31.494L95.9803 24.228H98.1923ZM107.34 29.954C107.34 30.234 107.321 30.486 107.284 30.71H101.614C101.661 31.27 101.857 31.7087 102.202 32.026C102.547 32.3433 102.972 32.502 103.476 32.502C104.204 32.502 104.722 32.1893 105.03 31.564H107.144C106.92 32.3107 106.491 32.9267 105.856 33.412C105.221 33.888 104.442 34.126 103.518 34.126C102.771 34.126 102.099 33.9627 101.502 33.636C100.914 33.3 100.452 32.8287 100.116 32.222C99.7894 31.6153 99.6261 30.9153 99.6261 30.122C99.6261 29.3193 99.7894 28.6147 100.116 28.008C100.443 27.4013 100.9 26.9347 101.488 26.608C102.076 26.2813 102.753 26.118 103.518 26.118C104.255 26.118 104.913 26.2767 105.492 26.594C106.08 26.9113 106.533 27.364 106.85 27.952C107.177 28.5307 107.34 29.198 107.34 29.954ZM105.31 29.394C105.301 28.89 105.119 28.4887 104.764 28.19C104.409 27.882 103.975 27.728 103.462 27.728C102.977 27.728 102.566 27.8773 102.23 28.176C101.903 28.4653 101.703 28.8713 101.628 29.394H105.31ZM111.739 34.126C111.104 34.126 110.535 34.014 110.031 33.79C109.527 33.5567 109.125 33.244 108.827 32.852C108.537 32.46 108.379 32.026 108.351 31.55H110.325C110.362 31.8487 110.507 32.096 110.759 32.292C111.02 32.488 111.342 32.586 111.725 32.586C112.098 32.586 112.387 32.5113 112.593 32.362C112.807 32.2127 112.915 32.0213 112.915 31.788C112.915 31.536 112.784 31.3493 112.523 31.228C112.271 31.0973 111.865 30.9573 111.305 30.808C110.726 30.668 110.25 30.5233 109.877 30.374C109.513 30.2247 109.195 29.996 108.925 29.688C108.663 29.38 108.533 28.9647 108.533 28.442C108.533 28.0127 108.654 27.6207 108.897 27.266C109.149 26.9113 109.503 26.6313 109.961 26.426C110.427 26.2207 110.973 26.118 111.599 26.118C112.523 26.118 113.26 26.3513 113.811 26.818C114.361 27.2753 114.665 27.896 114.721 28.68H112.845C112.817 28.372 112.686 28.1293 112.453 27.952C112.229 27.7653 111.925 27.672 111.543 27.672C111.188 27.672 110.913 27.7373 110.717 27.868C110.53 27.9987 110.437 28.1807 110.437 28.414C110.437 28.6753 110.567 28.876 110.829 29.016C111.09 29.1467 111.496 29.282 112.047 29.422C112.607 29.562 113.069 29.7067 113.433 29.856C113.797 30.0053 114.109 30.2387 114.371 30.556C114.641 30.864 114.781 31.2747 114.791 31.788C114.791 32.236 114.665 32.6373 114.413 32.992C114.17 33.3467 113.815 33.6267 113.349 33.832C112.891 34.028 112.355 34.126 111.739 34.126ZM119.368 34.126C118.733 34.126 118.164 34.014 117.66 33.79C117.156 33.5567 116.754 33.244 116.456 32.852C116.166 32.46 116.008 32.026 115.98 31.55H117.954C117.991 31.8487 118.136 32.096 118.388 32.292C118.649 32.488 118.971 32.586 119.354 32.586C119.727 32.586 120.016 32.5113 120.222 32.362C120.436 32.2127 120.544 32.0213 120.544 31.788C120.544 31.536 120.413 31.3493 120.152 31.228C119.9 31.0973 119.494 30.9573 118.934 30.808C118.355 30.668 117.879 30.5233 117.506 30.374C117.142 30.2247 116.824 29.996 116.554 29.688C116.292 29.38 116.162 28.9647 116.162 28.442C116.162 28.0127 116.283 27.6207 116.526 27.266C116.778 26.9113 117.132 26.6313 117.59 26.426C118.056 26.2207 118.602 26.118 119.228 26.118C120.152 26.118 120.889 26.3513 121.44 26.818C121.99 27.2753 122.294 27.896 122.35 28.68H120.474C120.446 28.372 120.315 28.1293 120.082 27.952C119.858 27.7653 119.554 27.672 119.172 27.672C118.817 27.672 118.542 27.7373 118.346 27.868C118.159 27.9987 118.066 28.1807 118.066 28.414C118.066 28.6753 118.196 28.876 118.458 29.016C118.719 29.1467 119.125 29.282 119.676 29.422C120.236 29.562 120.698 29.7067 121.062 29.856C121.426 30.0053 121.738 30.2387 122 30.556C122.27 30.864 122.41 31.2747 122.42 31.788C122.42 32.236 122.294 32.6373 122.042 32.992C121.799 33.3467 121.444 33.6267 120.978 33.832C120.52 34.028 119.984 34.126 119.368 34.126ZM123.524 30.094C123.524 29.31 123.678 28.6147 123.986 28.008C124.304 27.4013 124.729 26.9347 125.261 26.608C125.802 26.2813 126.404 26.118 127.067 26.118C127.645 26.118 128.149 26.2347 128.579 26.468C129.017 26.7013 129.367 26.9953 129.629 27.35V26.244H131.603V34H129.629V32.866C129.377 33.23 129.027 33.5333 128.579 33.776C128.14 34.0093 127.631 34.126 127.053 34.126C126.399 34.126 125.802 33.958 125.261 33.622C124.729 33.286 124.304 32.8147 123.986 32.208C123.678 31.592 123.524 30.8873 123.524 30.094ZM129.629 30.122C129.629 29.646 129.535 29.24 129.349 28.904C129.162 28.5587 128.91 28.2973 128.593 28.12C128.275 27.9333 127.935 27.84 127.571 27.84C127.207 27.84 126.871 27.9287 126.562 28.106C126.255 28.2833 126.003 28.5447 125.807 28.89C125.62 29.226 125.527 29.6273 125.527 30.094C125.527 30.5607 125.62 30.9713 125.807 31.326C126.003 31.6713 126.255 31.9373 126.562 32.124C126.88 32.3107 127.216 32.404 127.571 32.404C127.935 32.404 128.275 32.3153 128.593 32.138C128.91 31.9513 129.162 31.69 129.349 31.354C129.535 31.0087 129.629 30.598 129.629 30.122ZM136.555 26.118C137.133 26.118 137.642 26.2347 138.081 26.468C138.519 26.692 138.865 26.986 139.117 27.35V26.244H141.091V34.056C141.091 34.7747 140.946 35.414 140.657 35.974C140.367 36.5433 139.933 36.9913 139.355 37.318C138.776 37.654 138.076 37.822 137.255 37.822C136.153 37.822 135.248 37.5653 134.539 37.052C133.839 36.5387 133.442 35.8387 133.349 34.952H135.295C135.397 35.3067 135.617 35.5867 135.953 35.792C136.298 36.0067 136.713 36.114 137.199 36.114C137.768 36.114 138.23 35.9413 138.585 35.596C138.939 35.26 139.117 34.7467 139.117 34.056V32.852C138.865 33.216 138.515 33.5193 138.067 33.762C137.628 34.0047 137.124 34.126 136.555 34.126C135.901 34.126 135.304 33.958 134.763 33.622C134.221 33.286 133.792 32.8147 133.475 32.208C133.167 31.592 133.013 30.8873 133.013 30.094C133.013 29.31 133.167 28.6147 133.475 28.008C133.792 27.4013 134.217 26.9347 134.749 26.608C135.29 26.2813 135.892 26.118 136.555 26.118ZM139.117 30.122C139.117 29.646 139.023 29.24 138.837 28.904C138.65 28.5587 138.398 28.2973 138.081 28.12C137.763 27.9333 137.423 27.84 137.059 27.84C136.695 27.84 136.359 27.9287 136.051 28.106C135.743 28.2833 135.491 28.5447 135.295 28.89C135.108 29.226 135.015 29.6273 135.015 30.094C135.015 30.5607 135.108 30.9713 135.295 31.326C135.491 31.6713 135.743 31.9373 136.051 32.124C136.368 32.3107 136.704 32.404 137.059 32.404C137.423 32.404 137.763 32.3153 138.081 32.138C138.398 31.9513 138.65 31.69 138.837 31.354C139.023 31.0087 139.117 30.598 139.117 30.122ZM150.215 29.954C150.215 30.234 150.196 30.486 150.159 30.71H144.489C144.536 31.27 144.732 31.7087 145.077 32.026C145.422 32.3433 145.847 32.502 146.351 32.502C147.079 32.502 147.597 32.1893 147.905 31.564H150.019C149.795 32.3107 149.366 32.9267 148.731 33.412C148.096 33.888 147.317 34.126 146.393 34.126C145.646 34.126 144.974 33.9627 144.377 33.636C143.789 33.3 143.327 32.8287 142.991 32.222C142.664 31.6153 142.501 30.9153 142.501 30.122C142.501 29.3193 142.664 28.6147 142.991 28.008C143.318 27.4013 143.775 26.9347 144.363 26.608C144.951 26.2813 145.628 26.118 146.393 26.118C147.13 26.118 147.788 26.2767 148.367 26.594C148.955 26.9113 149.408 27.364 149.725 27.952C150.052 28.5307 150.215 29.198 150.215 29.954ZM148.185 29.394C148.176 28.89 147.994 28.4887 147.639 28.19C147.284 27.882 146.85 27.728 146.337 27.728C145.852 27.728 145.441 27.8773 145.105 28.176C144.778 28.4653 144.578 28.8713 144.503 29.394H148.185Z" fill="white"/>
</g>
<defs>
<filter id="filter0_d_1_39" x="0" y="0" width="170" height="62" filterUnits="userSpaceOnUse" color-interpolation-filters="sRGB">
<feFlood flood-opacity="0" result="BackgroundImageFix"/>
<feColorMatrix in="SourceAlpha" type="matrix" values="0 0 0 0 0 0 0 0 0 0 0 0 0 0 0 0 0 0 127 0" result="hardAlpha"/>
<feOffset dx="1" dy="2"/>
<feGaussianBlur stdDeviation="3"/>
<feComposite in2="hardAlpha" operator="out"/>
<feColorMatrix type="matrix" values="0 0 0 0 0 0 0 0 0 0 0 0 0 0 0 0 0 0 0.25 0"/>
<feBlend mode="normal" in2="BackgroundImageFix" result="effect1_dropShadow_1_39"/>
<feBlend mode="normal" in="SourceGraphic" in2="effect1_dropShadow_1_39" result="shape"/>
</filter>
<linearGradient id="paint0_linear_1_39" x1="5" y1="4" x2="166.736" y2="33.5628" gradientUnits="userSpaceOnUse">
<stop stop-color="#FC1683"/>
<stop offset="1" stop-color="#4825A1"/>
</linearGradient>
</defs>
</svg>
