<svg width="157" height="62" viewBox="0 0 157 62" fill="none" xmlns="http://www.w3.org/2000/svg">
<g filter="url(#filter0_d_935_5188)">
<rect x="5" y="4" width="145" height="50" rx="25" fill="url(#paint0_linear_935_5188)" shape-rendering="crispEdges"/>
<path d="M33.5 30.8333V28.0833H30.75V26.25H33.5V23.5H35.3333V26.25H38.0833V28.0833H35.3333V30.8333H33.5ZM25.25 29C24.2417 29 23.3785 28.641 22.6604 27.9229C21.9424 27.2049 21.5833 26.3417 21.5833 25.3333C21.5833 24.325 21.9424 23.4618 22.6604 22.7437C23.3785 22.0257 24.2417 21.6667 25.25 21.6667C26.2583 21.6667 27.1215 22.0257 27.8396 22.7437C28.5576 23.4618 28.9167 24.325 28.9167 25.3333C28.9167 26.3417 28.5576 27.2049 27.8396 27.9229C27.1215 28.641 26.2583 29 25.25 29ZM17.9167 36.3333V33.7667C17.9167 33.2472 18.0504 32.7698 18.3177 32.3344C18.5851 31.8989 18.9403 31.5667 19.3833 31.3375C20.3306 30.8639 21.2931 30.5087 22.2708 30.2719C23.2486 30.0351 24.2417 29.9167 25.25 29.9167C26.2583 29.9167 27.2514 30.0351 28.2292 30.2719C29.2069 30.5087 30.1694 30.8639 31.1167 31.3375C31.5597 31.5667 31.9149 31.8989 32.1823 32.3344C32.4497 32.7698 32.5833 33.2472 32.5833 33.7667V36.3333H17.9167Z" fill="white"/>
<path d="M53.958 32.138H50.066L49.422 34H47.364L50.878 24.214H53.16L56.674 34H54.602L53.958 32.138ZM53.426 30.57L52.012 26.482L50.598 30.57H53.426ZM57.4835 30.094C57.4835 29.31 57.6375 28.6147 57.9455 28.008C58.2628 27.4013 58.6922 26.9347 59.2335 26.608C59.7748 26.2813 60.3768 26.118 61.0395 26.118C61.5435 26.118 62.0242 26.23 62.4815 26.454C62.9388 26.6687 63.3028 26.958 63.5735 27.322V23.64H65.5615V34H63.5735V32.852C63.3308 33.2347 62.9902 33.5427 62.5515 33.776C62.1128 34.0093 61.6042 34.126 61.0255 34.126C60.3722 34.126 59.7748 33.958 59.2335 33.622C58.6922 33.286 58.2628 32.8147 57.9455 32.208C57.6375 31.592 57.4835 30.8873 57.4835 30.094ZM63.5875 30.122C63.5875 29.646 63.4942 29.24 63.3075 28.904C63.1208 28.5587 62.8688 28.2973 62.5515 28.12C62.2342 27.9333 61.8935 27.84 61.5295 27.84C61.1655 27.84 60.8295 27.9287 60.5215 28.106C60.2135 28.2833 59.9615 28.5447 59.7655 28.89C59.5788 29.226 59.4855 29.6273 59.4855 30.094C59.4855 30.5607 59.5788 30.9713 59.7655 31.326C59.9615 31.6713 60.2135 31.9373 60.5215 32.124C60.8388 32.3107 61.1748 32.404 61.5295 32.404C61.8935 32.404 62.2342 32.3153 62.5515 32.138C62.8688 31.9513 63.1208 31.69 63.3075 31.354C63.4942 31.0087 63.5875 30.598 63.5875 30.122ZM66.9718 30.094C66.9718 29.31 67.1258 28.6147 67.4338 28.008C67.7511 27.4013 68.1804 26.9347 68.7218 26.608C69.2631 26.2813 69.8651 26.118 70.5278 26.118C71.0318 26.118 71.5124 26.23 71.9698 26.454C72.4271 26.6687 72.7911 26.958 73.0618 27.322V23.64H75.0498V34H73.0618V32.852C72.8191 33.2347 72.4784 33.5427 72.0398 33.776C71.6011 34.0093 71.0924 34.126 70.5138 34.126C69.8604 34.126 69.2631 33.958 68.7218 33.622C68.1804 33.286 67.7511 32.8147 67.4338 32.208C67.1258 31.592 66.9718 30.8873 66.9718 30.094ZM73.0758 30.122C73.0758 29.646 72.9824 29.24 72.7958 28.904C72.6091 28.5587 72.3571 28.2973 72.0398 28.12C71.7224 27.9333 71.3818 27.84 71.0178 27.84C70.6538 27.84 70.3178 27.9287 70.0098 28.106C69.7018 28.2833 69.4498 28.5447 69.2538 28.89C69.0671 29.226 68.9738 29.6273 68.9738 30.094C68.9738 30.5607 69.0671 30.9713 69.2538 31.326C69.4498 31.6713 69.7018 31.9373 70.0098 32.124C70.3271 32.3107 70.6631 32.404 71.0178 32.404C71.3818 32.404 71.7224 32.3153 72.0398 32.138C72.3571 31.9513 72.6091 31.69 72.7958 31.354C72.9824 31.0087 73.0758 30.598 73.0758 30.122ZM79.824 29.1C79.824 28.1387 80.0387 27.28 80.468 26.524C80.9067 25.7587 81.4993 25.166 82.246 24.746C83.002 24.3167 83.8467 24.102 84.78 24.102C85.872 24.102 86.8287 24.382 87.65 24.942C88.4713 25.502 89.0453 26.2767 89.372 27.266H87.118C86.894 26.7993 86.5767 26.4493 86.166 26.216C85.7647 25.9827 85.298 25.866 84.766 25.866C84.1967 25.866 83.688 26.0013 83.24 26.272C82.8013 26.5333 82.456 26.9067 82.204 27.392C81.9613 27.8773 81.84 28.4467 81.84 29.1C81.84 29.744 81.9613 30.3133 82.204 30.808C82.456 31.2933 82.8013 31.6713 83.24 31.942C83.688 32.2033 84.1967 32.334 84.766 32.334C85.298 32.334 85.7647 32.2173 86.166 31.984C86.5767 31.7413 86.894 31.3867 87.118 30.92H89.372C89.0453 31.9187 88.4713 32.698 87.65 33.258C86.838 33.8087 85.8813 34.084 84.78 34.084C83.8467 34.084 83.002 33.874 82.246 33.454C81.4993 33.0247 80.9067 32.432 80.468 31.676C80.0387 30.92 79.824 30.0613 79.824 29.1ZM94.4901 34.126C93.7434 34.126 93.0714 33.9627 92.4741 33.636C91.8767 33.3 91.4054 32.8287 91.0601 32.222C90.7241 31.6153 90.5561 30.9153 90.5561 30.122C90.5561 29.3287 90.7287 28.6287 91.0741 28.022C91.4287 27.4153 91.9094 26.9487 92.5161 26.622C93.1227 26.286 93.7994 26.118 94.5461 26.118C95.2927 26.118 95.9694 26.286 96.5761 26.622C97.1827 26.9487 97.6587 27.4153 98.0041 28.022C98.3587 28.6287 98.5361 29.3287 98.5361 30.122C98.5361 30.9153 98.3541 31.6153 97.9901 32.222C97.6354 32.8287 97.1501 33.3 96.5341 33.636C95.9274 33.9627 95.2461 34.126 94.4901 34.126ZM94.4901 32.418C94.8447 32.418 95.1761 32.334 95.4841 32.166C95.8014 31.9887 96.0534 31.7273 96.2401 31.382C96.4267 31.0367 96.5201 30.6167 96.5201 30.122C96.5201 29.3847 96.3241 28.82 95.9321 28.428C95.5494 28.0267 95.0781 27.826 94.5181 27.826C93.9581 27.826 93.4867 28.0267 93.1041 28.428C92.7307 28.82 92.5441 29.3847 92.5441 30.122C92.5441 30.8593 92.7261 31.4287 93.0901 31.83C93.4634 32.222 93.9301 32.418 94.4901 32.418ZM104.272 26.132C105.196 26.132 105.942 26.426 106.512 27.014C107.081 27.5927 107.366 28.4047 107.366 29.45V34H105.406V29.716C105.406 29.1 105.252 28.6287 104.944 28.302C104.636 27.966 104.216 27.798 103.684 27.798C103.142 27.798 102.713 27.966 102.396 28.302C102.088 28.6287 101.934 29.1 101.934 29.716V34H99.9738V26.244H101.934V27.21C102.195 26.874 102.526 26.6127 102.928 26.426C103.338 26.23 103.786 26.132 104.272 26.132ZM111.512 27.854V31.606C111.512 31.8673 111.572 32.0587 111.694 32.18C111.824 32.292 112.039 32.348 112.338 32.348H113.248V34H112.016C110.364 34 109.538 33.1973 109.538 31.592V27.854H108.614V26.244H109.538V24.326H111.512V26.244H113.248V27.854H111.512ZM114.153 30.094C114.153 29.31 114.307 28.6147 114.615 28.008C114.933 27.4013 115.357 26.9347 115.889 26.608C116.431 26.2813 117.033 26.118 117.695 26.118C118.274 26.118 118.778 26.2347 119.207 26.468C119.646 26.7013 119.996 26.9953 120.257 27.35V26.244H122.231V34H120.257V32.866C120.005 33.23 119.655 33.5333 119.207 33.776C118.769 34.0093 118.26 34.126 117.681 34.126C117.028 34.126 116.431 33.958 115.889 33.622C115.357 33.286 114.933 32.8147 114.615 32.208C114.307 31.592 114.153 30.8873 114.153 30.094ZM120.257 30.122C120.257 29.646 120.164 29.24 119.977 28.904C119.791 28.5587 119.539 28.2973 119.221 28.12C118.904 27.9333 118.563 27.84 118.199 27.84C117.835 27.84 117.499 27.9287 117.191 28.106C116.883 28.2833 116.631 28.5447 116.435 28.89C116.249 29.226 116.155 29.6273 116.155 30.094C116.155 30.5607 116.249 30.9713 116.435 31.326C116.631 31.6713 116.883 31.9373 117.191 32.124C117.509 32.3107 117.845 32.404 118.199 32.404C118.563 32.404 118.904 32.3153 119.221 32.138C119.539 31.9513 119.791 31.69 119.977 31.354C120.164 31.0087 120.257 30.598 120.257 30.122ZM123.642 30.122C123.642 29.3193 123.805 28.6193 124.132 28.022C124.458 27.4153 124.911 26.9487 125.49 26.622C126.068 26.286 126.731 26.118 127.478 26.118C128.439 26.118 129.232 26.3607 129.858 26.846C130.492 27.322 130.917 27.994 131.132 28.862H129.018C128.906 28.526 128.714 28.2647 128.444 28.078C128.182 27.882 127.856 27.784 127.464 27.784C126.904 27.784 126.46 27.9893 126.134 28.4C125.807 28.8013 125.644 29.3753 125.644 30.122C125.644 30.8593 125.807 31.4333 126.134 31.844C126.46 32.2453 126.904 32.446 127.464 32.446C128.257 32.446 128.775 32.0913 129.018 31.382H131.132C130.917 32.222 130.492 32.8893 129.858 33.384C129.223 33.8787 128.43 34.126 127.478 34.126C126.731 34.126 126.068 33.9627 125.49 33.636C124.911 33.3 124.458 32.8333 124.132 32.236C123.805 31.6293 123.642 30.9247 123.642 30.122ZM134.85 27.854V31.606C134.85 31.8673 134.91 32.0587 135.032 32.18C135.162 32.292 135.377 32.348 135.676 32.348H136.586V34H135.354C133.702 34 132.876 33.1973 132.876 31.592V27.854H131.952V26.244H132.876V24.326H134.85V26.244H136.586V27.854H134.85Z" fill="white"/>
</g>
<defs>
<filter id="filter0_d_935_5188" x="0" y="0" width="157" height="62" filterUnits="userSpaceOnUse" color-interpolation-filters="sRGB">
<feFlood flood-opacity="0" result="BackgroundImageFix"/>
<feColorMatrix in="SourceAlpha" type="matrix" values="0 0 0 0 0 0 0 0 0 0 0 0 0 0 0 0 0 0 127 0" result="hardAlpha"/>
<feOffset dx="1" dy="2"/>
<feGaussianBlur stdDeviation="3"/>
<feComposite in2="hardAlpha" operator="out"/>
<feColorMatrix type="matrix" values="0 0 0 0 0 0 0 0 0 0 0 0 0 0 0 0 0 0 0.25 0"/>
<feBlend mode="normal" in2="BackgroundImageFix" result="effect1_dropShadow_935_5188"/>
<feBlend mode="normal" in="SourceGraphic" in2="effect1_dropShadow_935_5188" result="shape"/>
</filter>
<linearGradient id="paint0_linear_935_5188" x1="5" y1="4" x2="154.189" y2="29.0258" gradientUnits="userSpaceOnUse">
<stop stop-color="#FC1683"/>
<stop offset="1" stop-color="#4825A1"/>
</linearGradient>
</defs>
</svg>
