<svg width="18" height="18" viewBox="0 0 18 18" fill="none" xmlns="http://www.w3.org/2000/svg">
<g id="strikethrough_s_FILL0_wght400_GRAD0_opsz24 1">
<path id="Vector" d="M9.1125 15C8.1625 15 7.31875 14.7188 6.58125 14.1563C5.84375 13.5938 5.3125 12.825 4.9875 11.85L6.6375 11.1375C6.8125 11.7375 7.11562 12.2313 7.54687 12.6188C7.97812 13.0063 8.5125 13.2 9.15 13.2C9.675 13.2 10.15 13.075 10.575 12.825C11 12.575 11.2125 12.175 11.2125 11.625C11.2125 11.4 11.1687 11.1938 11.0812 11.0063C10.9937 10.8188 10.875 10.65 10.725 10.5H12.825C12.8875 10.675 12.9344 10.8531 12.9656 11.0344C12.9969 11.2156 13.0125 11.4125 13.0125 11.625C13.0125 12.7 12.6281 13.5313 11.8594 14.1188C11.0906 14.7063 10.175 15 9.1125 15ZM1.5 9.00001V7.50001H16.5V9.00001H1.5ZM9.0375 2.88751C9.8625 2.88751 10.5844 3.09064 11.2031 3.49689C11.8219 3.90314 12.3 4.52501 12.6375 5.36251L10.9875 6.09376C10.875 5.73126 10.6656 5.40626 10.3594 5.11876C10.0531 4.83126 9.625 4.68751 9.075 4.68751C8.5625 4.68751 8.1375 4.80314 7.8 5.03439C7.4625 5.26564 7.275 5.58751 7.2375 6.00001H5.4375C5.4625 5.13751 5.80312 4.40314 6.45937 3.79689C7.11562 3.19064 7.975 2.88751 9.0375 2.88751Z" fill="black"/>
</g>
</svg>
