<svg width="16" height="16" viewBox="0 0 16 16" fill="none" xmlns="http://www.w3.org/2000/svg">
<g id="Layer_1" clip-path="url(#clip0_2698_1087)">
<g id="Group">
<path id="Vector" fill-rule="evenodd" clip-rule="evenodd" d="M13.4595 0H2.54075C1.13975 0 0 1.13978 0 2.54059V13.4594C0 14.8603 1.13975 16 2.54075 16H13.4595C14.8604 16 16.0001 14.8603 16.0001 13.4594V2.54059C16.0001 1.13978 14.8603 0 13.4595 0Z" fill="#FF5C00"/>
<path id="Vector_2" fill-rule="evenodd" clip-rule="evenodd" d="M3.70312 8.4998C3.42687 8.4998 3.20312 8.27617 3.20312 7.99992V6.33642C3.20312 5.29086 4.05369 4.43986 5.09969 4.43986H11.0897L10.7063 4.05645C10.511 3.86142 10.511 3.54464 10.7063 3.34961C10.9016 3.1543 11.2181 3.1543 11.4134 3.34961L12.6503 4.58652C12.8456 4.7817 12.8456 5.09833 12.6503 5.29364L11.4134 6.53055C11.3157 6.6283 11.1877 6.67708 11.0601 6.67708C10.932 6.67708 10.804 6.6283 10.7063 6.53055C10.511 6.33552 10.511 6.01858 10.7063 5.82358L11.0897 5.43989H5.09969C4.60528 5.43989 4.20316 5.84202 4.20316 6.33642V7.99992C4.20312 8.27617 3.97937 8.4998 3.70312 8.4998ZM4.58656 12.6501L3.34966 11.4133C3.25591 11.3196 3.20312 11.1924 3.20312 11.0598C3.20312 10.927 3.25591 10.8 3.34966 10.706L4.58656 9.46927C4.78187 9.27395 5.09837 9.27395 5.29369 9.46927C5.489 9.6643 5.489 9.98077 5.29369 10.1761L4.91028 10.5598H10.9003C11.3947 10.5598 11.797 10.1577 11.797 9.66323V7.99986C11.797 7.72361 12.0206 7.49983 12.2968 7.49983C12.5732 7.49983 12.7968 7.72361 12.7968 7.99986V9.66323C12.7968 10.7088 11.9463 11.5598 10.9003 11.5598H4.91028L5.29369 11.9432C5.489 12.1382 5.489 12.4551 5.29369 12.65C5.19594 12.7479 5.06816 12.7967 4.94034 12.7967C4.81222 12.7968 4.68444 12.748 4.58656 12.6501Z" fill="white"/>
</g>
</g>
<defs>
<clipPath id="clip0_2698_1087">
<rect width="16" height="16" fill="white"/>
</clipPath>
</defs>
</svg>
