<svg width="30" height="30" viewBox="0 0 30 30" fill="none" xmlns="http://www.w3.org/2000/svg">
<g id="Bold / Users / User Circle">
<path id="Vector" fill-rule="evenodd" clip-rule="evenodd" d="M27 15C27 21.6274 21.6274 27 15 27C8.37258 27 3 21.6274 3 15C3 8.37258 8.37258 3 15 3C21.6274 3 27 8.37258 27 15ZM18.6 11.4C18.6 13.3882 16.9882 15 15 15C13.0118 15 11.4 13.3882 11.4 11.4C11.4 9.41178 13.0118 7.8 15 7.8C16.9882 7.8 18.6 9.41178 18.6 11.4ZM15 25.2C17.1408 25.2 19.1277 24.5404 20.7683 23.4134C21.4929 22.9157 21.8026 21.9675 21.3813 21.1959C20.5079 19.5963 18.7083 18.6 14.9999 18.6C11.2916 18.6 9.49196 19.5963 8.61857 21.1958C8.19726 21.9674 8.50692 22.9156 9.23155 23.4134C10.8722 24.5404 12.8591 25.2 15 25.2Z" fill="white"/>
</g>
</svg>
