<svg width="20" height="20" viewBox="0 0 20 20" fill="none" xmlns="http://www.w3.org/2000/svg">
<g id="cancel_24dp_FILL1_wght400_GRAD0_opsz24 1">
<path id="Vector" d="M7 14.1665L10 11.1665L13 14.1665L14.1667 12.9998L11.1667 9.99984L14.1667 6.99984L13 5.83317L10 8.83317L7 5.83317L5.83333 6.99984L8.83333 9.99984L5.83333 12.9998L7 14.1665ZM10 18.3332C8.84722 18.3332 7.76389 18.1144 6.75 17.6769C5.73611 17.2394 4.85417 16.6457 4.10417 15.8957C3.35417 15.1457 2.76042 14.2637 2.32292 13.2498C1.88542 12.2359 1.66667 11.1526 1.66667 9.99984C1.66667 8.84706 1.88542 7.76373 2.32292 6.74984C2.76042 5.73595 3.35417 4.854 4.10417 4.104C4.85417 3.354 5.73611 2.76025 6.75 2.32275C7.76389 1.88525 8.84722 1.6665 10 1.6665C11.1528 1.6665 12.2361 1.88525 13.25 2.32275C14.2639 2.76025 15.1458 3.354 15.8958 4.104C16.6458 4.854 17.2396 5.73595 17.6771 6.74984C18.1146 7.76373 18.3333 8.84706 18.3333 9.99984C18.3333 11.1526 18.1146 12.2359 17.6771 13.2498C17.2396 14.2637 16.6458 15.1457 15.8958 15.8957C15.1458 16.6457 14.2639 17.2394 13.25 17.6769C12.2361 18.1144 11.1528 18.3332 10 18.3332Z" fill="#545454"/>
</g>
</svg>
