<svg width="24" height="24" viewBox="0 0 24 24" fill="none" xmlns="http://www.w3.org/2000/svg">
<g id="home-icon-silhouette_69524 1">
<g id="Group">
<g id="Group_2">
<g id="Group_3">
<path id="Vector" d="M20.6979 11.2307L17.9699 8.6266V5.61843C17.9699 5.07451 17.5081 4.63371 16.9375 4.63371C16.3682 4.63371 15.9064 5.07451 15.9064 5.61843V6.65691L13.8752 4.71789C12.871 3.75977 11.1249 3.76147 10.123 4.71962L3.30199 11.2307C2.89934 11.6158 2.89934 12.239 3.30199 12.6235C3.70483 13.0086 4.35893 13.0086 4.76162 12.6235L11.582 6.1123C11.8041 5.90131 12.1958 5.90131 12.4168 6.11167L19.2383 12.6235C19.4405 12.8161 19.7043 12.9118 19.9679 12.9118C20.2321 12.9118 20.4962 12.816 20.6979 12.6235C21.1007 12.239 21.1007 11.6159 20.6979 11.2307Z" fill="#4926A0"/>
<path id="Vector_2" opacity="0.5" d="M12.3583 7.98128C12.1601 7.79221 11.8393 7.79221 11.6417 7.98128L5.64193 13.7068C5.5472 13.7972 5.4935 13.9206 5.4935 14.0494V18.2254C5.4935 19.2054 6.32585 19.9999 7.35237 19.9999H9.82285C10.099 19.9999 10.3229 19.776 10.3229 19.4999V16.1085C10.3229 15.8324 10.5467 15.6085 10.8229 15.6085H13.1765C13.4526 15.6085 13.6765 15.8324 13.6765 16.1085V19.4999C13.6765 19.776 13.9003 19.9999 14.1765 19.9999H16.647C17.6735 19.9999 18.5058 19.2054 18.5058 18.2255V14.0494C18.5058 13.9206 18.4526 13.7972 18.3574 13.7068L12.3583 7.98128Z" fill="#9D8CC9"/>
</g>
</g>
</g>
</g>
</svg>
