<svg width="24" height="24" viewBox="0 0 24 24" fill="none" xmlns="http://www.w3.org/2000/svg">
<g id="table_8950750 2" clip-path="url(#clip0_2960_24)">
<g id="Clip path group">
<mask id="mask0_2960_24" style="mask-type:luminance" maskUnits="userSpaceOnUse" x="0" y="0" width="24" height="24">
<g id="clip0_11_4084">
<path id="Vector" d="M0 0H24V24H0V0Z" fill="white"/>
</g>
</mask>
<g mask="url(#mask0_2960_24)">
<g id="Group">
<path id="Vector_2" d="M18.4 7.19965V18.3996H7.20001V19.9996H18.4C19.28 19.9996 20 19.2796 20 18.3996V7.19965H18.4Z" fill="#888888"/>
<path id="Vector_3" d="M16.8 15.2V5.6C16.8 4.72 16.08 4 15.2 4H5.6C4.72 4 4 4.72 4 5.6V15.2C4 16.08 4.72 16.8 5.6 16.8H15.2C16.08 16.8 16.8 16.08 16.8 15.2ZM5.6 5.6H15.2V9.6H5.6V5.6ZM9.6 15.2H5.6V11.2H9.6V15.2ZM11.2 11.2H15.2V15.2H11.2V11.2Z" fill="#888888"/>
</g>
</g>
</g>
</g>
<defs>
<clipPath id="clip0_2960_24">
<rect width="24" height="24" fill="white"/>
</clipPath>
</defs>
</svg>
